<svg xmlns="http://www.w3.org/2000/svg" viewBox="0 0 310 86.05"><defs><style>.cls-1{fill:#8c2b00;}.cls-2{fill:#ff9800;}</style></defs><title>logo</title><g id="Layer_2" data-name="Layer 2"><g id="Layer_1-2" data-name="Layer 1"><path class="cls-1" d="M0,72.93S155.45,33.69,310,64c-16.92,20-18.76,22-18.76,22S212.51,52.63,0,72.93"/><path class="cls-2" d="M38.27,47.53H31.08V42.87h-.13c-2,3.93-6.32,5.59-10.65,5.59-10.85,0-16.11-8.05-16.11-18.37,0-12.45,7.39-17.91,14.91-17.91,4.33,0,9.12,1.6,11.45,5.39h.13V0h7.59Zm-17-5.06c6.79,0,9.65-6.19,9.65-12.18,0-7.59-3.66-12.12-9.52-12.12-7.12,0-9.65,6.32-9.65,12.51C11.78,36.61,14.71,42.47,21.3,42.47Z"/><path class="cls-2" d="M76,47.53H68.56V42.74h-.13a11.55,11.55,0,0,1-9.79,5.72c-9,0-12.85-4.53-12.85-13.51V13.11h7.59v21.1c0,6.06,2.46,8.25,6.59,8.25,6.32,0,8.45-4.06,8.45-9.39v-20H76ZM51.45,7.66V.47H59V7.66Zm19-7.19V7.66H62.9V.47Z"/><path class="cls-2" d="M83.54,13.11h7.12v6.66h.13c.87-3.66,5.39-7.59,10.05-7.59a18,18,0,0,1,2.86.2v7.32a27.11,27.11,0,0,0-3.26-.33c-5.19,0-9.32,4.2-9.32,11.78V47.53H83.54Z"/><path class="cls-2" d="M136.13,39.88c0,1.86.4,2.59,1.8,2.59a10.66,10.66,0,0,0,1.86-.13V47.6a19,19,0,0,1-4.79.87c-3.06,0-5.26-1.06-5.86-4.19-3,2.93-7.86,4.19-11.91,4.19-6.19,0-11.79-3.33-11.79-10.05,0-8.59,6.86-10,13.25-10.72,5.46-1,10.32-.4,10.32-4.86,0-3.93-4.06-4.66-7.12-4.66-4.26,0-7.26,1.73-7.59,5.46H106.7c.53-8.85,8.06-11.45,15.64-11.45,6.72,0,13.78,2.73,13.78,10Zm-7.59-9.59c-2.33,1.53-6,1.46-9.32,2.06S113,34.08,113,38.08c0,3.39,4.33,4.39,7,4.39,3.33,0,8.52-1.73,8.52-6.52Z"/><path class="cls-2" d="M173.4,39.88c0,1.86.4,2.59,1.8,2.59a10.68,10.68,0,0,0,1.86-.13V47.6a19.05,19.05,0,0,1-4.79.87c-3.06,0-5.26-1.06-5.86-4.19-3,2.93-7.86,4.19-11.92,4.19-6.19,0-11.78-3.33-11.78-10.05,0-8.59,6.86-10,13.25-10.72,5.46-1,10.32-.4,10.32-4.86,0-3.93-4.06-4.66-7.12-4.66-4.26,0-7.26,1.73-7.59,5.46H144c.53-8.85,8.06-11.45,15.65-11.45,6.72,0,13.78,2.73,13.78,10Zm-7.59-9.59c-2.33,1.53-6,1.46-9.32,2.06s-6.19,1.73-6.19,5.72c0,3.39,4.33,4.39,7,4.39,3.33,0,8.52-1.73,8.52-6.52Z"/><path class="cls-2" d="M181.59,13.11h7.19v4.79h.2c2.26-3.39,5.13-5.72,10.58-5.72,4.19,0,8.12,1.8,9.65,5.72,2.53-3.53,5.79-5.72,10.78-5.72,7.26,0,11.52,3.2,11.52,11.58V47.53h-7.59V27.43c0-5.46-.33-9.25-6.26-9.25-5.13,0-7.32,3.4-7.32,9.19V47.53h-7.59V25.43c0-4.73-1.47-7.26-6.06-7.26-3.93,0-7.52,3.2-7.52,8.92V47.53h-7.59Z"/><path class="cls-2" d="M244.77,32.29c0,5.39,2.93,10.18,9.25,10.18,4.39,0,7.06-1.93,8.39-5.72h7.19c-1.66,7.52-8.06,11.72-15.58,11.72-10.78,0-16.84-7.52-16.84-18.11,0-9.79,6.39-18.17,16.64-18.17,10.85,0,17.51,9.79,16.24,20.1Zm17.71-5c-.27-4.79-3.53-9.12-8.65-9.12s-8.85,4-9.05,9.12Z"/><path class="cls-2" d="M275.59,13.11h7.19v5.06l.13.13a12.32,12.32,0,0,1,10.72-6.12c7.46,0,12.18,4,12.18,11.72V47.53h-7.59V25.9c-.13-5.39-2.26-7.72-6.72-7.72-5.06,0-8.32,4-8.32,9.05v20.3h-7.59Z"/></g></g></svg>