<svg xmlns="http://www.w3.org/2000/svg" viewBox="0 0 17.89 35.24">
  <title>architects</title>
  <path class="cls-1" d="M17.38,25.67,12.89,12.51A4.32,4.32,0,0,0,10.6,5V4.31h.73a.62.62,0,0,0,.61-.77L11.49.77a1,1,0,0,0-.9-.77H9.36a1,1,0,0,0-.9.77L8,3.55a.62.62,0,0,0,.61.77h.73V5a4.32,4.32,0,0,0-2.29,7.47L2.57,25.67H2.51a2.51,2.51,0,0,0-.46,5l.32,1.92h.47L3,35.24l.52-2.68H4L7,22.08H9.34v1.42H10.6V22.08h2.31l3,10.48h.52l.52,2.68.16-2.68h.46l.32-1.92ZM10.6,6.78a2.62,2.62,0,0,1,0,5.08Zm-1.26,0v5.08a2.62,2.62,0,0,1,0-5.08ZM10.6,21.26V19.84H9.34v1.42H7.27l2.19-7.64a4,4,0,0,0,1,0l2.19,7.64Z"/>
</svg>
