<svg xmlns="http://www.w3.org/2000/svg" viewBox="0 0 28.7 28.63">
  <title>contractors</title>
  <path class="cls-1" d="M9.4,12.29,1,3.94a.72.72,0,0,1,1-1l8.35,8.35.69-.69L2.78,2.26a.72.72,0,0,1,1-1l8.32,8.32.94-.94-8-8A2.89,2.89,0,0,0,1,1a2.89,2.89,0,0,0-.4,4l8,8ZM28.68,27.17,26.3,23.8c-.05-.08-.29,0-.6.26L25.63,24l-7-7L17,18.62l7,7,.08.07c-.23.32-.35.55-.26.6l3.44,2.31c.14.1.56-.12.94-.5S28.78,27.31,28.68,27.17ZM20.5,13.55a6.32,6.32,0,0,0,6.3-9.48L22.26,8.61,20,6.37l4.55-4.55a6.32,6.32,0,0,0-9.48,6.31,4,4,0,0,0-.79.61L2.11,20.92a4,4,0,0,0,5.6,5.6L19.89,14.35A4,4,0,0,0,20.5,13.55ZM6.24,24.23a1.3,1.3,0,1,1,0-1.83A1.29,1.29,0,0,1,6.24,24.23Z"/>
</svg>
