<svg xmlns="http://www.w3.org/2000/svg" viewBox="0 0 310 107.36"><defs><style>.cls-1{fill:#8c2b00;}.cls-2{fill:#ff9800;}.cls-3{fill:#fff;}</style></defs><title>logo-with-tag</title><g id="Layer_2" data-name="Layer 2"><g id="Layer_1-2" data-name="Layer 1"><path class="cls-1" d="M0,72.93S155.45,33.69,310,64c-16.92,20-18.76,22-18.76,22S212.51,52.63,0,72.93"/><path class="cls-2" d="M38.27,47.53H31.08V42.87h-.13c-2,3.93-6.32,5.59-10.65,5.59-10.85,0-16.11-8.05-16.11-18.37,0-12.45,7.39-17.91,14.91-17.91,4.33,0,9.12,1.6,11.45,5.39h.13V0h7.59Zm-17-5.06c6.79,0,9.65-6.19,9.65-12.18,0-7.59-3.66-12.12-9.52-12.12-7.12,0-9.65,6.32-9.65,12.51C11.78,36.61,14.71,42.47,21.3,42.47Z"/><path class="cls-2" d="M76,47.53H68.56V42.74h-.13a11.55,11.55,0,0,1-9.79,5.72c-9,0-12.85-4.53-12.85-13.51V13.11h7.59v21.1c0,6.06,2.46,8.25,6.59,8.25,6.32,0,8.45-4.06,8.45-9.39v-20H76ZM51.45,7.66V.47H59V7.66Zm19-7.19V7.66H62.9V.47Z"/><path class="cls-2" d="M83.54,13.11h7.12v6.66h.13c.87-3.66,5.39-7.59,10.05-7.59a18,18,0,0,1,2.86.2v7.32a27.11,27.11,0,0,0-3.26-.33c-5.19,0-9.32,4.2-9.32,11.78V47.53H83.54Z"/><path class="cls-2" d="M136.13,39.88c0,1.86.4,2.59,1.8,2.59a10.66,10.66,0,0,0,1.86-.13V47.6a19,19,0,0,1-4.79.87c-3.06,0-5.26-1.06-5.86-4.19-3,2.93-7.86,4.19-11.91,4.19-6.19,0-11.79-3.33-11.79-10.05,0-8.59,6.86-10,13.25-10.72,5.46-1,10.32-.4,10.32-4.86,0-3.93-4.06-4.66-7.12-4.66-4.26,0-7.26,1.73-7.59,5.46H106.7c.53-8.85,8.06-11.45,15.64-11.45,6.72,0,13.78,2.73,13.78,10Zm-7.59-9.59c-2.33,1.53-6,1.46-9.32,2.06S113,34.08,113,38.08c0,3.39,4.33,4.39,7,4.39,3.33,0,8.52-1.73,8.52-6.52Z"/><path class="cls-2" d="M173.4,39.88c0,1.86.4,2.59,1.8,2.59a10.68,10.68,0,0,0,1.86-.13V47.6a19.05,19.05,0,0,1-4.79.87c-3.06,0-5.26-1.06-5.86-4.19-3,2.93-7.86,4.19-11.92,4.19-6.19,0-11.78-3.33-11.78-10.05,0-8.59,6.86-10,13.25-10.72,5.46-1,10.32-.4,10.32-4.86,0-3.93-4.06-4.66-7.12-4.66-4.26,0-7.26,1.73-7.59,5.46H144c.53-8.85,8.06-11.45,15.65-11.45,6.72,0,13.78,2.73,13.78,10Zm-7.59-9.59c-2.33,1.53-6,1.46-9.32,2.06s-6.19,1.73-6.19,5.72c0,3.39,4.33,4.39,7,4.39,3.33,0,8.52-1.73,8.52-6.52Z"/><path class="cls-2" d="M181.59,13.11h7.19v4.79h.2c2.26-3.39,5.13-5.72,10.58-5.72,4.19,0,8.12,1.8,9.65,5.72,2.53-3.53,5.79-5.72,10.78-5.72,7.26,0,11.52,3.2,11.52,11.58V47.53h-7.59V27.43c0-5.46-.33-9.25-6.26-9.25-5.13,0-7.32,3.4-7.32,9.19V47.53h-7.59V25.43c0-4.73-1.47-7.26-6.06-7.26-3.93,0-7.52,3.2-7.52,8.92V47.53h-7.59Z"/><path class="cls-2" d="M244.77,32.29c0,5.39,2.93,10.18,9.25,10.18,4.39,0,7.06-1.93,8.39-5.72h7.19c-1.66,7.52-8.06,11.72-15.58,11.72-10.78,0-16.84-7.52-16.84-18.11,0-9.79,6.39-18.17,16.64-18.17,10.85,0,17.51,9.79,16.24,20.1Zm17.71-5c-.27-4.79-3.53-9.12-8.65-9.12s-8.85,4-9.05,9.12Z"/><path class="cls-2" d="M275.59,13.11h7.19v5.06l.13.13a12.32,12.32,0,0,1,10.72-6.12c7.46,0,12.18,4,12.18,11.72V47.53h-7.59V25.9c-.13-5.39-2.26-7.72-6.72-7.72-5.06,0-8.32,4-8.32,9.05v20.3h-7.59Z"/><path class="cls-3" d="M25.5,96.12c0,2.1,1.14,4,3.6,4a3.1,3.1,0,0,0,3.26-2.23h2.8a5.86,5.86,0,0,1-6.06,4.56c-4.2,0-6.55-2.93-6.55-7,0-3.81,2.49-7.07,6.48-7.07,4.22,0,6.81,3.81,6.32,7.82Zm6.89-1.94a3.45,3.45,0,1,0-6.89,0Z"/><path class="cls-3" d="M37.61,88.66h2.8v2l.05.05a4.8,4.8,0,0,1,4.17-2.38c2.9,0,4.74,1.55,4.74,4.56v9.2h-3V93.63c-.05-2.1-.88-3-2.61-3a3.27,3.27,0,0,0-3.24,3.52v7.9h-3Z"/><path class="cls-3" d="M64.77,101.35c0,4-2.36,6-6.58,6-2.69,0-5.72-1-6-4.17h3c.36,1.68,1.71,2,3.21,2,2.38,0,3.45-1.22,3.45-3.42v-2h-.05a4.59,4.59,0,0,1-4,2.36c-4.25,0-6-3.21-6-7,0-3.6,2.25-6.71,6.06-6.71a4.21,4.21,0,0,1,4,2.2h.05V88.66h3Zm-3-6.3c0-2.3-1-4.43-3.6-4.43s-3.52,2.44-3.52,4.66,1.06,4.43,3.52,4.43C60.84,99.72,61.82,97.34,61.82,95.06Z"/><path class="cls-3" d="M67.82,83.56h3v2.8h-3Zm0,5.1h3v13.39h-3Z"/><path class="cls-3" d="M73.87,88.66h2.8v2l.05.05a4.8,4.8,0,0,1,4.17-2.38c2.9,0,4.74,1.55,4.74,4.56v9.2h-3V93.63c-.05-2.1-.88-3-2.61-3a3.27,3.27,0,0,0-3.24,3.52v7.9h-3Z"/><path class="cls-3" d="M91,96.12c0,2.1,1.14,4,3.6,4a3.1,3.1,0,0,0,3.26-2.23h2.8a5.86,5.86,0,0,1-6.06,4.56c-4.2,0-6.55-2.93-6.55-7,0-3.81,2.49-7.07,6.48-7.07,4.22,0,6.81,3.81,6.32,7.82Zm6.89-1.94a3.45,3.45,0,1,0-6.89,0Z"/><path class="cls-3" d="M105.49,96.12c0,2.1,1.14,4,3.6,4a3.1,3.1,0,0,0,3.26-2.23h2.8a5.86,5.86,0,0,1-6.06,4.56c-4.2,0-6.55-2.93-6.55-7,0-3.81,2.49-7.07,6.48-7.07,4.22,0,6.81,3.81,6.32,7.82Zm6.89-1.94a3.45,3.45,0,1,0-6.89,0Z"/><path class="cls-3" d="M117.6,88.66h2.77v2.59h.05a4.33,4.33,0,0,1,3.91-3,6.81,6.81,0,0,1,1.11.08v2.85a11,11,0,0,0-1.27-.13c-2,0-3.63,1.63-3.63,4.58v6.37h-3Z"/><path class="cls-3" d="M129.12,96.12c0,2.1,1.14,4,3.6,4A3.1,3.1,0,0,0,136,97.85h2.8a5.86,5.86,0,0,1-6.06,4.56c-4.2,0-6.55-2.93-6.55-7,0-3.81,2.49-7.07,6.48-7.07,4.22,0,6.81,3.81,6.32,7.82ZM136,94.18a3.45,3.45,0,1,0-6.89,0Z"/><path class="cls-3" d="M154,102.05h-2.8v-1.81h-.05a4.45,4.45,0,0,1-4.14,2.18c-4.22,0-6.27-3.13-6.27-7.15,0-4.84,2.87-7,5.8-7A5.16,5.16,0,0,1,151,90.4H151V83.56h3Zm-6.6-2c2.64,0,3.76-2.41,3.76-4.74,0-3-1.42-4.72-3.7-4.72-2.77,0-3.76,2.46-3.76,4.87S144.79,100.08,147.36,100.08Z"/><path class="cls-3" d="M163,88.66h2.23v-4h3v4h2.67v2.2H168.2V98c0,1.22.1,1.84,1.42,1.84a5,5,0,0,0,1.24-.1V102c-.65.05-1.27.16-1.92.16-3.08,0-3.65-1.19-3.7-3.42v-7.9H163Z"/><path class="cls-3" d="M172,95.34c0-4.09,2.46-7,6.76-7s6.76,3,6.76,7-2.46,7.07-6.76,7.07S172,99.46,172,95.34Zm10.57,0c0-2.31-1.17-4.72-3.81-4.72s-3.81,2.41-3.81,4.72,1.16,4.74,3.81,4.74S182.55,97.67,182.55,95.34Z"/><path class="cls-3" d="M195.23,88.66H198v1.81h0a4.48,4.48,0,0,1,4.14-2.17c4.22,0,6.27,3.21,6.27,7.12,0,3.6-1.81,7-5.78,7a5.21,5.21,0,0,1-4.48-2.1h-.05V107h-3Zm6.6,2c-2.49,0-3.76,1.89-3.76,4.74,0,2.69,1.38,4.71,3.76,4.71,2.7,0,3.71-2.38,3.71-4.71S204.27,90.63,201.83,90.63Z"/><path class="cls-3" d="M213.27,96.12c0,2.1,1.14,4,3.6,4a3.1,3.1,0,0,0,3.26-2.23h2.8a5.86,5.86,0,0,1-6.06,4.56c-4.2,0-6.55-2.93-6.55-7,0-3.81,2.49-7.07,6.47-7.07,4.22,0,6.81,3.81,6.32,7.82Zm6.89-1.94a3.45,3.45,0,1,0-6.89,0Z"/><path class="cls-3" d="M225.38,88.66h2.77v2.59h.05a4.33,4.33,0,0,1,3.91-3,6.82,6.82,0,0,1,1.11.08v2.85A11,11,0,0,0,232,91.1c-2,0-3.63,1.63-3.63,4.58v6.37h-3Z"/><path class="cls-3" d="M234.09,88.66h2.2V87.55c0-3.42,1.79-4,3.7-4a8.24,8.24,0,0,1,2.07.18V86a5,5,0,0,0-1.37-.16c-.8,0-1.45.29-1.45,1.4v1.37h2.51v2.2h-2.51v11.19h-3V90.86h-2.2Z"/><path class="cls-3" d="M242.72,95.34c0-4.09,2.46-7,6.76-7s6.76,3,6.76,7-2.46,7.07-6.76,7.07S242.72,99.46,242.72,95.34Zm10.57,0c0-2.31-1.17-4.72-3.81-4.72s-3.81,2.41-3.81,4.72,1.16,4.74,3.81,4.74S253.29,97.67,253.29,95.34Z"/><path class="cls-3" d="M258.66,88.66h2.77v2.59h.05a4.32,4.32,0,0,1,3.91-3,6.81,6.81,0,0,1,1.12.08v2.85a11,11,0,0,0-1.27-.13c-2,0-3.63,1.63-3.63,4.58v6.37h-3Z"/><path class="cls-3" d="M268,88.66h2.8v1.87h.08A4.47,4.47,0,0,1,275,88.3a3.79,3.79,0,0,1,3.76,2.23A4.83,4.83,0,0,1,283,88.3c2.82,0,4.48,1.24,4.48,4.51v9.25h-3V94.23c0-2.12-.13-3.6-2.43-3.6-2,0-2.85,1.32-2.85,3.58v7.85h-3v-8.6c0-1.84-.57-2.83-2.36-2.83-1.53,0-2.93,1.24-2.93,3.47v8h-3Z"/></g></g></svg>