<svg xmlns="http://www.w3.org/2000/svg" viewBox="0 0 384 448"><defs><style>.cls-1{fill:#d60d0d}.cls-2{fill:#fff}.cls-3{fill:#a01010}</style></defs><title>pdf</title><g id="Layer_2" data-name="Layer 2"><g id="Layer_1-2" data-name="Layer 1"><path class="cls-1" d="M384 440a8.16 8.16 0 0 1-8 8H8a8.13 8.13 0 0 1-8-8V8a8.1 8.1 0 0 1 8-8h228.52S384 133.65 384 136v304z"/><path class="cls-2" d="M357.15 287.35c-2.19 1.35-8.44 2.19-12.4 2.19-12.92 0-28.76-5.94-51.16-15.52 8.65-.63 16.46-.94 23.55-.94 12.92 0 16.67 0 29.38 3.23s12.71 9.69 10.63 11zm-224.12 2c5-8.75 10.11-18 15.32-27.92a522.74 522.74 0 0 0 26.78-58.56c12 21.78 26.88 40.22 44.28 55 2.19 1.88 4.48 3.65 7 5.52-35.55 7.08-66.29 15.61-93.41 25.94zm41.47-228.1c7.08 0 11.15 17.77 11.46 34.55s-3.54 28.34-8.44 37.09c-4.06-12.92-5.94-33.13-5.94-46.37.01.01-.31-25.27 2.92-25.27zm-139 320.08c4.06-10.94 19.9-32.61 43.34-51.89 1.46-1.15 5.11-4.58 8.44-7.71-24.48 39.18-40.95 54.7-51.78 59.6zm328.41-117c-7.08-7-22.92-10.63-46.89-10.94-16.25-.21-35.74 1.25-56.37 4.06-9.17-5.31-18.65-11-26.15-18-20-18.75-36.68-44.7-47.09-73.25.63-2.71 1.25-5 1.77-7.4 0 0 11.25-64.08 8.23-85.75a23.17 23.17 0 0 0-1.41-6.17l-.94-2.6c-3-7-9.06-14.55-18.55-14.14L171 50h-.1c-10.52 0-19.17 5.39-21.36 13.38-6.88 25.32.21 63 13 111.9l-3.33 8c-9.17 22.3-20.63 44.8-30.74 64.6l-1.35 2.6C116.47 271.3 106.78 289 98 304l-9 4.81c-.63.42-16.15 8.54-19.8 10.73C38.32 338 17.82 358.93 14.42 375.6c-1.08 5.21-.27 12 5.22 15.21l8.75 4.38A26.76 26.76 0 0 0 40.3 398c22 0 47.51-27.3 82.62-88.67 40.63-13.23 86.9-24.28 127.43-30.32 30.84 17.4 68.77 29.49 92.73 29.49a41.59 41.59 0 0 0 10.92-1.25 18 18 0 0 0 10.84-7.4c4.58-7 5.63-16.57 4.27-26.46-.31-2.92-2.71-6.56-5.21-9.06z"/><path class="cls-3" d="M384 136.05H236.52V0L384 136.05z"/></g></g></svg>
