<svg xmlns="http://www.w3.org/2000/svg" viewBox="0 0 33.51 30.95">
  <title>property</title>
  <path class="cls-1" d="M31.13,6.68A.73.73,0,0,0,30.39,6H17.85V.73A.73.73,0,0,0,17.12,0h-14a.73.73,0,0,0-.73.73v29H0v1.19H33.51V29.75H31.13ZM24,8.33h4.76v4.76H24Zm0,6h4.76V19H24Zm0,6h4.76V25H24ZM18,8.33h4.76v4.76H18Zm0,6h4.76V19H18Zm0,6h4.76V25H18ZM10.71,2.38h4.76V7.14H10.71Zm0,6h4.76v4.76H10.71Zm0,6h4.76V19H10.71Zm0,6h4.76V25H10.71Zm-6-17.85H9.52V7.14H4.76Zm0,6H9.52v4.76H4.76Zm0,6H9.52V19H4.76Zm0,6H9.52V25H4.76Zm3.57,9.52V26.18H11.9v3.57Zm13.27,0V26.18h3.57v3.57Z"/>
</svg>
